<svg width="33" height="69" viewBox="0 0 33 69" xmlns="http://www.w3.org/2000/svg" xmlns:xlink="http://www.w3.org/1999/xlink"><title>Base Color Background Copy 6</title><defs><path d="M17.58 58.294h14.38v-4.83H27.3V21.073h4.66v-4.83H27.3v-4.828h-4.86v42.05h-4.86v-37.22h-4.86v37.22h-2.227v.004c-.067-.002-.135-.003-.203-.003-4.026 0-7.29 3.243-7.29 7.243s3.264 7.243 7.29 7.243c3.96 0 7.18-3.133 7.288-7.04h.003v-2.616zm2.257 2.29H33.98V.96h-33v59.623c0 5.18 4.22 9.378 9.428 9.378 5.207 0 9.43-4.198 9.43-9.377zM15.15 13.828c1.343 0 2.43-1.082 2.43-2.416C17.58 10.08 16.494 9 15.15 9c-1.34 0-2.43 1.08-2.43 2.414s1.09 2.415 2.43 2.415zM7.86 60.707c0-1.333 1.088-2.414 2.43-2.414 1.343 0 2.43 1.08 2.43 2.414s-1.087 2.415-2.43 2.415c-1.342 0-2.43-1.08-2.43-2.415z" id="a"/></defs><g fill="none" fill-rule="evenodd"><use fill="#FFF" xlink:href="#a" transform="translate(-.98 -.96)"/></g></svg>